<svg xmlns="http://www.w3.org/2000/svg" viewBox="0 0 64 80" x="0px" y="0px"><title>principal</title><g data-name="Layer 34"><path d="M60.61426,32.20989H42.97v-4.493a5.00737,5.00737,0,0,0-3.84-4.88l-2.6-.62a.98857.98857,0,0,0-.24-.03.33973.33973,0,0,1-.1-.01,1.23058,1.23058,0,0,1-1.11914-1.12219,7.06568,7.06568,0,0,0,3.39795-3.31616,2.64734,2.64734,0,0,0,.86121.14838,2.6767,2.6767,0,0,0,1.91852-4.54663,2.42767,2.42767,0,0,0,.66845-1.68409,9.71865,9.71865,0,0,0-2.10644-6.02539,10.37176,10.37176,0,0,0-.99024-1.07715,9.811,9.811,0,0,0-16.53808,7.10059,3.05416,3.05416,0,0,0,.58,1.75787A2.67007,2.67007,0,0,0,24.84,17.8869a2.60954,2.60954,0,0,0,.87805-.15491,7.0694,7.0694,0,0,0,3.22644,3.24469A1.24161,1.24161,0,0,1,27.91,22.16686a1.35231,1.35231,0,0,1-.2.02.98857.98857,0,0,0-.24005.03l-2.6.62a5.00737,5.00737,0,0,0-3.84,4.88v.45h-10a1.00669,1.00669,0,0,0-.94.65l-1.24695,3.393H3.38574A1.88758,1.88758,0,0,0,1.5,34.09564v2.22851a1.88757,1.88757,0,0,0,1.88574,1.88574H5.30957V60.9931a1.13551,1.13551,0,0,0,1.13477,1.13379H8.67578A1.1353,1.1353,0,0,0,9.80957,60.9931V58.12689H54.19043V60.9931a1.1353,1.1353,0,0,0,1.13379,1.13379h2.23144a1.13551,1.13551,0,0,0,1.13477-1.13379V38.20989h1.92383A1.88757,1.88757,0,0,0,62.5,36.32415V34.09564A1.88758,1.88758,0,0,0,60.61426,32.20989Zm-25.87219-5.588-.82587-1.11737a6.661,6.661,0,0,0,1.49548-.56421Zm-4.49195-1.12439-.85962,1.12964-.65759-1.71051A6.6516,6.6516,0,0,0,30.25012,25.49749Zm1.28662,6.7124L30.234,28.82134l1.85-2.43078,1.78748,2.41772L32.517,32.20989ZM39.33,15.8869a.66437.66437,0,0,1-.20917-.04212l.31854-1.29571A.67284.67284,0,0,1,39.33,15.8869Zm-15.17-.68006a.675.675,0,0,1,.36-.58941c.08722.02728.176.04852.2652.06836l.28357,1.15509a.66541.66541,0,0,1-.90882-.634Zm2.965.62512-.31934-1.30084a21.8613,21.8613,0,0,0,7.90723-3.59466,16.35819,16.35819,0,0,0,2.95081,2.46179L37.06543,15.832a5.11815,5.11815,0,0,1-9.94043,0Zm4.9707,5.89649a7.13738,7.13738,0,0,0,1.03076-.087A3.29255,3.29255,0,0,0,34.13,23.35687a6.09517,6.09517,0,0,1-4.19-.05,3.22877,3.22877,0,0,0,.94043-1.68219A7.17786,7.17786,0,0,0,32.0957,21.72845ZM11.73,30.16686H24.5l.74,2H10.99Zm48.77,6.043H3.5v-2h57Z"/></g><text x="0" y="79" fill="#000000" font-size="5px" font-weight="bold" font-family="'Helvetica Neue', Helvetica, Arial-Unicode, Arial, Sans-serif">Created by agus raharjo</text><text x="0" y="84" fill="#000000" font-size="5px" font-weight="bold" font-family="'Helvetica Neue', Helvetica, Arial-Unicode, Arial, Sans-serif">from the Noun Project</text></svg>